# xmcd
#
# Track frame offsets: 
#        150
#        20079
#        35563
#        58531
#        75229
#        93194
#        121726
#        143106
#        157026
#        186364
#        206711
#
# Disc length: 2986 seconds
#
# Revision: 0
# Processed by: cddbd v1.4PL0 Copyright (c) Steve Scherf et al.
# Submitted via: ExactAudioCopy v0.90b2
#
DISCID=8e0ba80b
DTITLE=Rockin' Daddy and the Rough Cuts - Blues and Tall Tales
DYEAR=2000
DGENRE=Blues
TTITLE0=Yes, She Sends Me
TTITLE1=C.O.D.
TTITLE2=Why Do I Stay
TTITLE3=Your Conscience Is On My Side
TTITLE4=Easy Come, Easy Go
TTITLE5=Joker On Your Back
TTITLE6=Elbow Room
TTITLE7=Wiggle and Wobble
TTITLE8=Long Distance Line
TTITLE9=Can't Believe
TTITLE10=Whiskey and Lemonade
EXTD=Parsifal label
EXTT0=Yes, She Sends Me
EXTT1=
EXTT2=
EXTT3=
EXTT4=
EXTT5=
EXTT6=
EXTT7=
EXTT8=
EXTT9=
EXTT10=
PLAYORDER=
